<svg xmlns="[http://www.w3.org/2000/svg](http://www.w3.org/2000/svg)" viewBox="0 0 24 24" width="24" height="24">
  <defs>
    <linearGradient id="benchScoutGrad" x1="0%" y1="0%" x2="100%" y2="100%">
      <stop offset="0%" stop-color="#0058bc" />
      <stop offset="100%" stop-color="#0ea5e9" />
    </linearGradient>
  </defs>
  
  <rect width="24" height="24" rx="6" fill="url(#benchScoutGrad)" />
  <path d="M21 16V8a2 2 0 0 0-1-1.73l-7-4a2 2 0 0 0-2 0l-7 4A2 2 0 0 0 3 8v8a2 2 0 0 0 1 1.73l7 4a2 2 0 0 0 2 0l7-4A2 2 0 0 0 21 16z" fill="none" stroke="white" stroke-width="2" stroke-linejoin="round" />
  
  <circle cx="12" cy="12" r="2.5" fill="#22c55e" />
  
  <circle cx="12" cy="12" r="2.5" fill="#22c55e">
    <animate attributeName="r" values="2.5; 6; 2.5" dur="2s" repeatCount="indefinite" />
    <animate attributeName="opacity" values="0.8; 0; 0" dur="2s" repeatCount="indefinite" />
  </circle>
</svg>
